<?xml version="1.0" standalone="no"?>
<!DOCTYPE svg PUBLIC "-//W3C//DTD SVG 20010904//EN"
 "http://www.w3.org/TR/2001/REC-SVG-20010904/DTD/svg10.dtd">
<svg version="1.0" xmlns="http://www.w3.org/2000/svg"
 width="1466.000000pt" height="500.000000pt" viewBox="0 0 1466.000000 500.000000"
 preserveAspectRatio="xMidYMid meet">
<metadata>
Created by potrace 1.16, written by Peter Selinger 2001-2019
</metadata>
<g transform="translate(0.000000,500.000000) scale(0.100000,-0.100000)"
fill="#000000" stroke="none">
<path d="M10705 4194 c-325 -48 -516 -201 -591 -474 -25 -92 -26 -329 -1 -419
60 -219 219 -377 550 -545 206 -105 301 -178 349 -267 19 -37 23 -59 23 -139
0 -81 -4 -102 -25 -145 -41 -82 -119 -116 -227 -100 -69 10 -130 75 -161 170
-12 39 -22 79 -22 90 0 11 -3 30 -6 43 l-6 22 -274 0 -274 0 5 -37 c2 -21 7
-66 9 -100 13 -164 78 -306 190 -418 84 -83 179 -134 313 -167 75 -19 114 -22
268 -22 209 1 282 16 425 85 167 82 293 246 333 434 21 94 21 271 2 372 -53
278 -180 418 -565 623 -318 169 -370 222 -370 370 0 144 79 224 204 206 98
-15 130 -69 161 -268 l6 -38 271 0 271 0 -6 83 c-24 330 -190 542 -482 618
-78 20 -298 34 -370 23z"/>
<path d="M12445 4194 c-325 -48 -516 -201 -591 -474 -25 -92 -26 -329 -1 -419
60 -219 219 -377 548 -544 204 -104 286 -165 339 -253 33 -56 35 -62 35 -154
0 -81 -4 -102 -25 -145 -41 -82 -119 -116 -227 -100 -69 10 -130 75 -161 170
-12 39 -22 79 -22 90 0 11 -3 30 -6 43 l-6 22 -273 0 -272 0 4 -72 c16 -278
141 -491 345 -591 133 -64 225 -81 433 -81 152 1 193 4 260 22 276 75 451 256
502 519 16 84 20 93 40 93 34 0 389 76 596 127 159 39 187 49 187 65 0 15 -3
17 -19 8 -11 -5 -60 -10 -109 -10 -97 0 -258 -24 -279 -42 -7 -6 -13 -7 -13
-2 0 5 -4 4 -8 -2 -9 -14 -98 -59 -132 -67 -14 -3 -64 -7 -112 -8 -48 -1 -98
-7 -112 -14 l-23 -12 -5 96 c-7 131 -40 263 -86 342 -46 79 -163 197 -262 265
-41 29 -145 89 -230 134 -318 169 -370 222 -370 370 0 144 79 224 204 206 98
-15 130 -69 161 -268 l6 -38 271 0 271 0 -6 83 c-24 330 -190 542 -482 618
-78 20 -298 34 -370 23z"/>
<path d="M3100 4141 c0 -5 70 -330 156 -722 158 -723 238 -1092 295 -1364 17
-82 40 -189 51 -238 l20 -87 351 2 352 3 52 245 c87 406 154 712 312 1430 83
377 154 697 157 713 l6 27 -291 0 -291 0 -5 -22 c-3 -13 -30 -180 -60 -373
-31 -192 -80 -501 -109 -685 -50 -315 -88 -585 -103 -727 -3 -35 -9 -63 -13
-63 -5 0 -43 298 -56 450 -8 91 -37 278 -130 832 -52 312 -94 572 -94 577 0 8
-96 11 -300 11 -165 0 -300 -4 -300 -9z"/>
<path d="M5205 4128 c-5 -23 -275 -1391 -275 -1396 0 -1 118 -1 262 0 l263 3
22 140 c13 77 41 268 63 425 22 157 44 308 48 335 l8 50 7 -35 c4 -19 34 -231
68 -470 33 -239 63 -438 66 -442 2 -5 125 -8 274 -8 211 0 269 3 269 13 0 11
-262 1330 -275 1385 l-5 22 -395 0 -395 0 -5 -22z"/>
<path d="M6660 2941 l0 -1211 280 0 280 0 0 264 0 263 49 -5 c27 -2 57 1 67 7
15 8 4 10 -53 11 l-73 0 0 225 0 225 90 0 c128 0 184 -14 229 -59 60 -60 63
-79 71 -456 4 -192 13 -369 20 -407 l12 -68 275 0 276 0 -6 48 c-4 26 -11 182
-16 347 -12 354 -16 409 -38 495 -33 135 -87 219 -179 277 -24 15 -44 30 -44
33 0 3 17 14 37 25 99 52 191 183 230 326 28 99 24 328 -6 434 -47 168 -142
289 -281 357 -148 73 -137 71 -707 75 l-513 4 0 -1210z m860 757 c73 -42 94
-90 98 -226 6 -178 -24 -259 -114 -302 -38 -19 -69 -24 -165 -28 l-119 -5 0
298 0 297 128 -4 c116 -3 132 -6 172 -30z"/>
<path d="M8273 4133 c11 -41 509 -1366 544 -1448 l38 -90 -4 -432 -3 -433 287
0 287 0 -3 433 -4 432 27 67 c16 38 32 76 38 85 6 10 125 322 264 693 140 371
258 683 261 693 7 16 -9 17 -286 15 l-292 -3 -14 -50 c-8 -27 -69 -265 -136
-528 l-123 -478 -13 68 c-19 94 -130 543 -184 743 -25 91 -50 184 -56 208
l-12 42 -311 0 c-291 0 -310 -1 -305 -17z"/>
<path d="M2824 2920 c-137 -15 -202 -48 -239 -121 -14 -26 -25 -55 -25 -64 0
-10 -22 -26 -55 -41 -45 -21 -67 -25 -113 -21 -31 2 -68 7 -82 12 -56 17 -88
17 -114 -1 -41 -26 -162 -31 -224 -9 -49 18 -50 18 -98 -6 -56 -27 -146 -31
-212 -10 -35 12 -46 11 -101 -8 -69 -24 -113 -26 -193 -10 -43 9 -58 17 -67
35 -17 38 -91 113 -138 141 -157 92 -386 59 -501 -71 -45 -51 -82 -129 -89
-186 -5 -41 -8 -47 -25 -42 -11 2 -22 11 -25 18 -8 20 -40 17 -63 -6 -29 -29
-28 -99 3 -128 27 -25 62 -29 71 -7 11 29 31 10 64 -60 33 -68 108 -174 126
-175 4 0 21 -11 37 -24 55 -46 134 -69 244 -70 90 -1 106 2 156 26 46 23 175
138 155 138 -17 0 28 61 49 66 49 12 122 8 182 -10 57 -17 64 -18 109 -2 64
22 139 20 193 -4 52 -24 75 -25 131 -5 59 21 130 19 185 -5 52 -22 105 -26
123 -8 6 6 45 12 87 14 63 3 86 -1 130 -21 29 -13 56 -21 59 -18 3 3 8 -3 12
-13 28 -84 80 -138 161 -167 36 -13 80 -17 175 -17 120 0 128 1 152 24 20 18
27 37 32 85 6 53 10 61 28 62 20 0 20 1 -1 9 -13 5 -24 14 -24 20 -1 5 -3 15
-4 20 -1 6 -3 57 -4 115 0 63 -5 105 -11 105 -5 0 -10 -9 -10 -20 0 -11 -4
-20 -10 -20 -5 0 -10 12 -10 26 0 14 -4 23 -10 19 -5 -3 -10 -26 -10 -51 0
-24 5 -44 10 -44 6 0 10 9 10 20 0 11 4 20 9 20 4 0 6 -11 3 -25 -2 -14 -10
-25 -17 -25 -8 0 -15 -10 -17 -22 -2 -13 -8 49 -12 136 -9 161 -4 283 12 327
9 23 9 23 16 3 4 -12 7 -38 8 -59 1 -21 7 -54 15 -74 13 -34 13 -32 8 39 -9
123 -14 144 -36 163 -12 9 -34 18 -50 18 -41 2 -46 3 -55 12 -8 8 -7 8 -110
-3z"/>
<path d="M5940 2240 l-126 -5 41 -250 40 -250 293 -3 c237 -2 292 0 292 11 0
12 -82 429 -95 485 -5 22 -7 22 -163 20 -86 -1 -213 -5 -282 -8z"/>
<path d="M4958 2233 c-71 -2 -128 -5 -128 -6 0 -5 -89 -450 -95 -474 l-5 -23
285 0 c157 0 285 3 285 8 0 10 69 442 76 475 l6 27 -149 -2 c-81 -1 -205 -4
-275 -5z"/>
<path d="M3471 1357 c-54 -27 -80 -93 -81 -199 0 -78 18 -154 43 -184 49 -56
153 -37 185 34 25 56 23 244 -2 296 -28 56 -93 80 -145 53z m90 -69 c17 -29
19 -47 17 -144 -3 -122 -17 -154 -64 -154 -49 0 -78 101 -64 221 12 106 68
144 111 77z"/>
<path d="M5914 1364 c-31 -7 -62 -44 -69 -84 -9 -53 19 -97 90 -139 70 -42 88
-76 64 -119 -26 -47 -90 -42 -107 8 -9 23 -17 30 -38 30 -24 0 -26 -3 -19 -27
15 -63 53 -93 116 -93 69 0 109 45 109 124 0 54 -25 88 -89 121 -26 13 -53 30
-60 39 -16 20 -10 76 10 89 25 16 68 0 75 -28 9 -35 54 -36 54 -1 0 55 -68 94
-136 80z"/>
<path d="M6431 1357 c-54 -27 -80 -93 -81 -199 0 -78 18 -154 43 -184 49 -56
153 -37 185 34 25 56 23 244 -2 296 -28 56 -93 80 -145 53z m90 -69 c17 -29
19 -47 17 -144 -3 -122 -17 -154 -64 -154 -49 0 -78 101 -64 221 12 106 68
144 111 77z"/>
<path d="M8030 1357 c-60 -31 -88 -123 -77 -258 9 -107 47 -159 115 -159 64 0
94 27 117 108 6 19 3 22 -24 22 -23 0 -31 -5 -31 -18 0 -28 -29 -62 -54 -62
-46 0 -61 33 -64 144 -4 122 10 171 54 182 21 6 31 2 46 -16 10 -12 18 -31 18
-41 0 -14 7 -19 25 -19 20 0 25 5 25 25 0 77 -81 127 -150 92z"/>
<path d="M11861 1357 c-54 -27 -80 -93 -81 -199 0 -78 18 -154 43 -184 49 -56
153 -37 185 34 25 56 23 244 -2 296 -28 56 -93 80 -145 53z m90 -69 c17 -29
19 -47 17 -144 -3 -122 -17 -154 -64 -154 -49 0 -78 101 -64 221 12 106 68
144 111 77z"/>
<path d="M3950 1155 l0 -205 25 0 c25 0 25 1 25 85 l0 85 35 0 c20 0 51 7 71
15 71 29 85 143 24 198 -27 24 -38 27 -105 27 l-75 0 0 -205z"/>
<path d="M4460 1155 l0 -206 97 3 c84 3 98 6 101 21 3 15 -6 17 -72 17 l-76 0
0 75 0 75 65 0 c63 0 65 1 65 25 0 24 -2 25 -65 25 l-65 0 0 60 0 60 70 0 c68
0 70 1 70 25 0 25 0 25 -95 25 l-95 0 0 -205z"/>
<path d="M4950 1156 l0 -206 26 0 26 0 -3 160 -4 159 61 -157 c60 -153 62
-157 93 -160 l31 -3 0 205 0 206 -25 0 -25 0 0 -147 -1 -148 -58 145 c-57 140
-60 145 -90 148 l-31 3 0 -205z"/>
<path d="M6900 1200 c0 -176 9 -216 54 -245 40 -27 123 -16 153 19 22 26 23
34 23 207 l0 179 -25 0 -25 0 0 -168 c0 -151 -2 -171 -18 -185 -24 -22 -65
-21 -85 1 -14 16 -17 44 -17 185 l0 167 -30 0 -30 0 0 -160z"/>
<path d="M7450 1155 l0 -205 25 0 c25 0 25 1 25 91 l0 90 42 -3 c53 -4 68 -28
68 -115 0 -62 0 -63 28 -63 l27 0 -6 82 c-6 86 -14 118 -31 118 -5 0 0 12 11
26 21 27 29 102 15 139 -11 28 -60 45 -134 45 l-70 0 0 -205z"/>
<path d="M8490 1155 l0 -206 97 3 c84 3 98 6 101 21 3 15 -6 17 -72 17 l-76 0
0 75 0 75 65 0 c63 0 65 1 65 25 0 24 -2 25 -65 25 l-65 0 0 60 0 60 70 0 c68
0 70 1 70 25 0 25 0 25 -95 25 l-95 0 0 -205z"/>
<path d="M9340 1155 l0 -205 25 0 c25 0 25 1 25 85 l0 85 35 0 c20 0 51 7 71
15 71 29 85 143 24 198 -27 24 -38 27 -105 27 l-75 0 0 -205z"/>
<path d="M9850 1155 l0 -205 95 0 c88 0 95 1 95 20 0 18 -7 20 -70 20 l-70 0
0 185 0 185 -25 0 -25 0 0 -205z"/>
<path d="M10406 1343 c-3 -10 -23 -94 -46 -188 -22 -93 -43 -178 -46 -187 -4
-14 1 -18 24 -18 29 0 30 2 42 65 l12 65 49 0 c53 0 48 6 75 -102 5 -22 12
-28 34 -28 l28 0 -19 73 c-10 39 -32 132 -50 205 l-31 132 -33 0 c-23 0 -35
-5 -39 -17z"/>
<path d="M10790 1335 c0 -23 4 -25 45 -25 l45 0 0 -180 0 -180 25 0 25 0 0
180 0 180 45 0 c41 0 45 2 45 25 l0 25 -115 0 -115 0 0 -25z"/>
<path d="M11310 1155 l0 -205 25 0 c25 0 25 0 25 95 l0 95 65 0 c63 0 65 1 65
25 0 24 -2 25 -65 25 l-65 0 0 60 0 60 70 0 c68 0 70 1 70 25 0 25 0 25 -95
25 l-95 0 0 -205z"/>
<path d="M12330 1155 l0 -205 25 0 c25 0 25 1 25 91 l0 90 42 -3 c53 -4 68
-28 68 -115 0 -62 0 -63 28 -63 l27 0 -6 82 c-6 86 -14 118 -31 118 -5 0 0 12
11 26 21 27 29 102 15 139 -11 28 -60 45 -134 45 l-70 0 0 -205z"/>
<path d="M12850 1156 l0 -206 25 0 25 0 1 143 1 142 30 -142 31 -143 28 0 c16
0 29 3 29 8 0 4 15 73 34 152 l35 145 0 -152 1 -153 25 0 25 0 0 206 0 205
-37 -3 -38 -3 -36 -150 c-21 -82 -38 -145 -39 -140 -1 6 -16 73 -33 150 l-32
140 -38 3 -37 3 0 -205z"/>
</g>
</svg>
